HIERARCHY
ROOT hip
{
	OFFSET 0.000000 0.000000 0.000000 
	CHANNELS 6 Xposition Yposition Zposition Xrotation Zrotation Yrotation
	JOINT abdomen
	{
		OFFSET 0.000000 3.402643 0.000000 
		CHANNELS 3 Xrotation Zrotation Yrotation
		JOINT chest
		{
			OFFSET 0.000000 8.438565 -0.680529 
			CHANNELS 3 Xrotation Zrotation Yrotation
			JOINT neck
			{
				OFFSET 0.000000 10.207942 -0.272212 
				CHANNELS 3 Xrotation Zrotation Yrotation
				JOINT head
				{
					OFFSET 0.000000 3.130431 0.000000 
					CHANNELS 3 Xrotation Zrotation Yrotation
					End Site
					{
						OFFSET 0.000000 3.130435 0.000000 
					}
				}
			}
			JOINT lCollar
			{
				OFFSET 3.470700 6.669187 -0.816635 
				CHANNELS 3 Yrotation Zrotation Xrotation
				JOINT lShldr
				{
					OFFSET 3.198488 0.000000 0.000000 
					CHANNELS 3 Zrotation Yrotation Xrotation
					JOINT lForeArm
					{
						OFFSET 10.139888 0.000000 0.000000 
						CHANNELS 3 Yrotation Zrotation Xrotation
						JOINT lHand
						{
							OFFSET 8.370511 0.000000 0.000000 
							CHANNELS 3 Zrotation Yrotation Xrotation
							End Site
							{
								OFFSET 4.083176 0.000000 0.000000 
							}
						}
					}
				}
			}
			JOINT rCollar
			{
				OFFSET -3.470700 6.669187 -0.816635 
				CHANNELS 3 Yrotation Zrotation Xrotation
				JOINT rShldr
				{
					OFFSET -3.198488 0.000000 0.000000 
					CHANNELS 3 Zrotation Yrotation Xrotation
					JOINT rForeArm
					{
						OFFSET -10.139888 0.000000 0.000000 
						CHANNELS 3 Yrotation Zrotation Xrotation
						JOINT rHand
						{
							OFFSET -8.370511 0.000000 0.000000 
							CHANNELS 3 Zrotation Yrotation Xrotation
							End Site
							{
								OFFSET -4.083176 0.000000 0.000000 
							}
						}
					}
				}
			}
		}
	}
	JOINT lThigh
	{
		OFFSET 5.308129 -1.633274 1.361059 
		CHANNELS 3 Xrotation Zrotation Yrotation
		JOINT lShin
		{
			OFFSET -2.041588 -20.007561 0.000000 
			CHANNELS 3 Xrotation Zrotation Yrotation
			JOINT lFoot
			{
				OFFSET 0.000000 -19.190928 -1.224953 
				CHANNELS 3 Xrotation Yrotation Zrotation
				End Site
				{
					OFFSET 0.000000 -2.449906 4.627600 
				}
			}
		}
	}
	JOINT rThigh
	{
		OFFSET -5.308129 -1.633274 1.361059 
		CHANNELS 3 Xrotation Zrotation Yrotation
		JOINT rShin
		{
			OFFSET 2.041588 -20.007561 0.000000 
			CHANNELS 3 Xrotation Zrotation Yrotation
			JOINT rFoot
			{
				OFFSET 0.000000 -19.190928 -1.224953 
				CHANNELS 3 Xrotation Yrotation Zrotation
				End Site
				{
					OFFSET 0.000000 -2.449906 4.627600 
				}
			}
		}
	}
}
MOTION
Frames: 14
Frame Time: 0.016667
4.973302 40.893078 4.122519 5.481020 1.730340 29.824400 -15.858800 -0.367808 6.683250 18.261700 0.185398 3.273820 -14.571100 24.905399 -34.019699 7.698600 19.321301 -13.128600 2.000000 -2.000000 0.000000 61.929600 -65.468102 58.385101 82.119698 -0.233594 0.135473 -179.916000 -179.893997 1.857620 -2.000000 2.000000 0.000000 -120.891998 83.186699 -7.482180 -86.309097 0.223650 0.136442 -0.062430 0.050120 -155.125000 -19.908083 -5.727143 -4.737699 42.631176 1.959324 3.161959 -18.493008 -10.168506 -4.494874 -15.800044 -1.500138 -9.161010 63.616142 -1.096312 -4.023781 -6.408655 -17.694269 -3.445803 
4.907271 40.907372 4.123744 5.949890 1.699780 30.900000 -15.636700 -0.538171 6.669540 18.447300 -0.058554 3.263880 -14.942300 25.784700 -34.049500 7.784420 19.845900 -12.940200 2.000000 -2.000000 0.000000 59.032398 -66.310799 60.805099 83.731003 -0.229779 0.135946 -179.916000 -179.884995 1.906470 -2.000000 2.000000 0.000000 -129.621002 83.773804 -15.354200 -87.080597 0.221812 0.136548 -0.062490 0.050302 -155.192993 -20.589607 -6.222498 -5.162014 43.151985 1.927339 3.185610 -20.205814 -7.677537 -3.923274 -15.575444 -1.100470 -9.555135 62.930092 -1.135305 -4.006269 -6.315967 -19.235289 -3.648901 
4.812772 40.833237 4.105141 6.565170 1.629870 31.584200 -15.415800 -0.571275 6.828810 18.662100 -0.107363 3.343390 -17.429701 25.880301 -34.951099 7.156900 20.581100 -12.904200 2.000000 -2.000000 0.000000 55.860802 -67.153397 63.235699 85.430199 -0.225742 0.136328 -179.916000 -179.895004 1.965040 -2.000000 2.000000 0.000000 -144.233994 84.133202 -29.466600 -87.432198 0.220974 0.136588 -0.062176 0.049340 -154.832001 -21.477400 -6.578711 -5.560311 43.517998 1.872006 3.223607 -19.079584 -9.101782 -4.324718 -15.691630 -0.722033 -9.413145 62.272835 -1.178657 -3.979521 -7.519934 -20.567398 -4.308098 
4.704365 40.757431 4.095277 6.886960 1.444580 32.410999 -15.040100 -0.331341 6.855280 18.906200 0.126900 3.394780 -18.468201 25.390900 -35.707802 6.917430 20.605200 -13.122400 2.000000 -2.000000 0.000000 51.936001 -68.210899 66.017097 87.256401 -0.221394 0.136606 -179.917007 -179.895996 2.453320 -2.000000 2.000000 0.000000 20.916300 96.314598 136.147995 -87.803299 0.220090 0.136625 -0.061851 0.048324 -154.451004 -22.188248 -6.748895 -6.165968 43.902020 1.848457 3.262908 -19.383911 -8.875929 -4.322824 -15.769569 -0.165741 -9.272172 61.743675 -1.210448 -3.969526 -8.646755 -21.996395 -5.010117 
4.580041 40.644825 4.087818 7.229160 1.530710 33.329102 -14.772400 -0.092780 6.879800 18.876900 0.497833 3.432670 -18.044901 25.261999 -36.031502 7.214990 20.384800 -13.294100 2.000000 -2.000000 0.000000 48.246101 -70.224503 68.007301 89.238800 -0.216666 0.136750 -179.917999 -179.897003 3.156450 -2.000000 2.000000 0.000000 8.520690 96.381104 124.974998 -88.340401 0.218809 0.136668 -0.061461 0.047071 -153.981995 -22.771551 -7.112036 -6.856776 44.109329 1.815618 3.273997 -18.563450 -10.408683 -4.742410 -15.798555 0.008721 -9.257051 61.508232 -1.217794 -3.953797 -9.428643 -23.118067 -5.529594 
4.451391 40.565289 4.061576 7.668660 1.500140 34.000999 -14.547700 0.118860 7.055820 18.867100 0.702819 3.543720 -18.642799 24.328899 -36.618198 6.800570 19.982800 -13.709300 2.000000 -2.000000 0.000000 41.809101 -71.449600 73.707802 91.621696 -0.210704 0.156233 -179.908997 -179.888000 3.586150 -2.000000 2.000000 0.000000 -4.773330 96.776199 112.777000 -89.141098 0.216898 0.136710 -0.060374 0.043372 -152.604996 -23.471132 -7.486246 -7.465392 44.228413 1.792543 3.290975 -18.409018 -10.646201 -4.841474 -16.170527 0.117029 -9.018158 61.645367 -1.205074 -3.950966 -10.185180 -23.737434 -5.971190 
4.325763 40.469540 4.064890 8.128130 1.585480 34.660198 -14.169500 0.308854 7.172110 19.033001 1.025030 3.625080 -19.054001 24.307199 -37.009499 6.822710 20.050699 -13.767900 2.000000 -2.000000 0.000000 35.134300 -72.732002 79.222702 93.975197 -0.204694 0.155939 -179.919006 -179.899002 4.015820 -2.000000 2.000000 0.000000 -13.971700 95.414001 106.710999 -91.142998 0.212316 0.117170 -0.061222 0.046286 -153.688995 -24.160221 -7.750760 -7.498208 44.416531 1.759338 3.312266 -17.676634 -12.133015 -5.218042 -16.574390 -0.005082 -8.910082 61.950493 -1.173405 -3.979173 -10.737069 -23.970066 -6.277921 
4.178219 40.376232 4.063171 8.293830 1.488180 35.275700 -14.016000 0.343804 7.097100 18.837601 1.015170 3.602350 -20.772699 24.485701 -37.598801 6.334780 20.702801 -13.774600 2.000000 -2.000000 0.000000 25.263599 -73.222603 88.818802 96.553299 -0.198131 0.155333 -179.919006 -179.897995 3.791210 -2.000000 2.000000 0.000000 -26.777800 97.480103 94.209602 -91.435997 0.211668 0.117155 -0.060169 0.042634 -152.332001 -24.726786 -7.675800 -7.484568 44.829201 1.740025 3.341927 -17.597012 -12.478799 -5.303816 -16.893253 0.134266 -8.903849 62.323128 -1.142205 -3.985409 -11.307119 -24.040102 -6.559574 
4.016407 40.276489 4.077359 8.488680 1.342560 35.639999 -13.811000 0.603850 7.265130 18.691000 1.259100 3.709000 -20.673700 24.049900 -38.243698 6.349900 20.370800 -14.229400 2.000000 -2.000000 0.000000 16.219999 -74.774498 96.599503 98.604103 -0.192934 0.154641 -179.921005 -179.899994 4.689640 -2.000000 2.000000 0.000000 -37.742599 98.720001 84.403198 -92.363701 0.209613 0.117087 -0.059574 0.040415 -151.511993 -25.358622 -7.522705 -7.514175 45.310734 1.701961 3.362091 -17.742186 -12.850924 -5.460289 -17.469803 0.274218 -8.829211 62.883244 -1.088109 -4.019306 -12.402603 -23.779736 -6.987782 
3.857560 40.170319 4.077517 8.918440 1.331370 36.126999 -13.626700 1.000440 7.801730 18.592800 1.737260 3.993200 -22.725300 23.622900 -38.700500 5.344320 20.832199 -14.394400 2.000000 -2.000000 0.000000 3.941190 -76.780701 107.681000 100.792000 -0.187422 0.153699 -179.912994 -179.893005 5.636940 -2.000000 2.000000 0.000000 -51.321701 100.002998 71.685600 -93.340302 0.207452 0.116979 -0.058837 0.037471 -150.427994 -26.018503 -7.693412 -7.754881 45.558277 1.661784 3.397784 -16.918747 -14.066226 -5.634261 -18.375759 -0.071538 -8.724898 63.835800 -0.999699 -4.063460 -10.700667 -23.657347 -6.249185 
3.694512 40.036469 4.079999 9.104260 1.388540 36.658199 -13.030800 1.101270 7.370910 18.836700 2.108430 3.813700 -22.771099 24.155100 -38.902699 5.963680 21.020500 -14.013300 2.000000 -2.000000 0.000000 -8.599490 -76.077301 118.556999 103.194000 -0.181415 0.152422 -179.923996 -179.904007 6.525590 -2.000000 2.000000 0.000000 -52.647301 102.033997 72.046303 -94.326599 0.205271 0.116833 -0.058438 0.035767 -149.802994 -26.486546 -7.845393 -8.140885 46.046726 1.667874 3.396007 -16.947102 -14.786625 -5.870486 -19.012054 -0.430035 -9.207148 64.836990 -0.908544 -4.102001 -11.759472 -23.130066 -6.589472 
3.532690 39.981007 4.103412 9.407360 1.454790 37.135700 -12.692000 1.473460 7.674910 18.826300 2.635520 3.982990 -24.005501 23.458799 -39.480999 5.314970 21.018000 -14.352100 2.000000 -2.000000 0.000000 -22.817699 -75.990303 132.136993 105.449997 -0.175827 0.150995 -179.923996 -179.904999 6.750200 -2.000000 2.000000 0.000000 -61.373100 103.658997 64.885498 -95.254303 0.203223 0.116662 -0.057744 0.032587 -148.639999 -27.067638 -8.121687 -7.966101 46.558708 1.623234 3.441097 -19.769108 -11.113131 -5.282730 -19.789509 -1.052969 -9.791992 65.946548 -0.809238 -4.156830 -10.115355 -22.741816 -5.832908 
3.347275 39.903526 4.135708 9.319480 1.464790 37.301102 -12.212000 1.751370 7.474650 18.747299 3.113680 3.915510 -23.806400 23.378000 -39.576900 5.615470 20.790400 -14.249300 2.000000 -2.000000 0.000000 -34.158600 -74.302299 142.494995 107.569000 -0.170632 0.149454 -179.925995 -179.906998 7.560740 -2.000000 2.000000 0.000000 -64.301399 105.924004 64.005096 -96.250397 0.201027 0.116441 -0.057424 0.031006 -148.063995 -27.332222 -7.847085 -7.764135 47.000969 1.600549 3.477048 -18.529964 -12.638279 -5.515757 -20.363218 -1.372577 -10.439111 67.046181 -0.710652 -4.209527 -9.315619 -22.102150 -5.389322 
3.132944 39.810871 4.207851 9.212230 1.513440 37.569801 -13.043300 0.020441 8.328460 17.207001 -0.126736 4.343360 -24.714300 23.650600 -39.687801 4.184480 20.829599 -15.022600 2.000000 -2.000000 0.000000 136.707001 -107.551003 -24.257401 109.415001 -0.166157 0.147957 -179.925003 -179.906006 7.189650 -2.000000 2.000000 0.000000 -68.191902 109.869003 56.021301 -97.685997 0.197870 0.116055 -0.059692 0.040865 -151.677994 -27.510845 -7.530025 -7.717991 47.481800 1.580725 3.503283 -18.198868 -13.899598 -5.845742 -20.923483 -1.727509 -11.310433 68.293221 -0.589217 -4.265750 -8.512548 -20.990545 -4.827925 
